# Exported from Wings 3D 1.2
mtllib grid.mtl
o grid1
#29 vertices, 21 faces
v -1.00000000 0.10000000 -1.00000000
v -0.50000000 0.10000000 -1.00000000
v 0.0000000e+0 0.10000000 -1.00000000
v 0.50000000 0.10000000 -1.00000000
v 1.00000000 0.10000000 -1.00000000
v -1.00000000 0.10000000 -0.50000000
v -0.50000000 0.10000000 -0.50000000
v 0.0000000e+0 0.10000000 -0.50000000
v 0.50000000 0.10000000 -0.50000000
v 1.00000000 0.10000000 -0.50000000
v -1.00000000 0.10000000 0.0000000e+0
v -0.50000000 0.10000000 0.0000000e+0
v 0.0000000e+0 0.10000000 0.0000000e+0
v 0.50000000 0.10000000 0.0000000e+0
v 1.00000000 0.10000000 0.0000000e+0
v -1.00000000 0.10000000 0.50000000
v -0.50000000 0.10000000 0.50000000
v 0.0000000e+0 0.10000000 0.50000000
v 0.50000000 0.10000000 0.50000000
v 1.00000000 0.10000000 0.50000000
v -1.00000000 0.10000000 1.00000000
v -0.50000000 0.10000000 1.00000000
v 0.0000000e+0 0.10000000 1.00000000
v 0.50000000 0.10000000 1.00000000
v 1.00000000 0.10000000 1.00000000
v -1.00000000 -0.10000000 -1.00000000
v 1.00000000 -0.10000000 -1.00000000
v -1.00000000 -0.10000000 1.00000000
v 1.00000000 -0.10000000 1.00000000
vn -0.57735027 0.57735027 -0.57735027
vn 0.0000000e+0 0.89442719 -0.44721360
vn 0.0000000e+0 0.89442719 -0.44721360
vn 0.0000000e+0 0.89442719 -0.44721360
vn 0.57735027 0.57735027 -0.57735027
vn -0.44721360 0.89442719 0.0000000e+0
vn 0.0000000e+0 1.00000000 0.0000000e+0
vn 0.0000000e+0 1.00000000 0.0000000e+0
vn 0.0000000e+0 1.00000000 0.0000000e+0
vn 0.44721360 0.89442719 0.0000000e+0
vn -0.44721360 0.89442719 0.0000000e+0
vn 0.0000000e+0 1.00000000 0.0000000e+0
vn 0.0000000e+0 1.00000000 0.0000000e+0
vn 0.0000000e+0 1.00000000 0.0000000e+0
vn 0.44721360 0.89442719 0.0000000e+0
vn -0.44721360 0.89442719 0.0000000e+0
vn 0.0000000e+0 1.00000000 0.0000000e+0
vn 0.0000000e+0 1.00000000 0.0000000e+0
vn 0.0000000e+0 1.00000000 0.0000000e+0
vn 0.44721360 0.89442719 0.0000000e+0
vn -0.57735027 0.57735027 0.57735027
vn 0.0000000e+0 0.89442719 0.44721360
vn 0.0000000e+0 0.89442719 0.44721360
vn 0.0000000e+0 0.89442719 0.44721360
vn 0.57735027 0.57735027 0.57735027
vn -0.57735027 -0.57735027 -0.57735027
vn 0.57735027 -0.57735027 -0.57735027
vn -0.57735027 -0.57735027 0.57735027
vn 0.57735027 -0.57735027 0.57735027
g grid1_default
usemtl default
s 1
f 1//1 6//6 7//7 2//2
f 1//1 26//26 28//28 21//21 16//16 11//11 6//6
f 2//2 3//3 4//4 5//5 27//27 26//26 1//1
f 2//2 7//7 8//8 3//3
f 3//3 8//8 9//9 4//4
f 4//4 9//9 10//10 5//5
f 6//6 11//11 12//12 7//7
f 7//7 12//12 13//13 8//8
f 8//8 13//13 14//14 9//9
f 9//9 14//14 15//15 10//10
f 10//10 15//15 20//20 25//25 29//29 27//27 5//5
f 11//11 16//16 17//17 12//12
f 12//12 17//17 18//18 13//13
f 13//13 18//18 19//19 14//14
f 14//14 19//19 20//20 15//15
f 16//16 21//21 22//22 17//17
f 17//17 22//22 23//23 18//18
f 18//18 23//23 24//24 19//19
f 19//19 24//24 25//25 20//20
f 21//21 28//28 29//29 25//25 24//24 23//23 22//22
f 27//27 29//29 28//28 26//26
